<?xml version="1.0" encoding="utf-8"?>
<!-- Generator: Adobe Illustrator 16.0.0, SVG Export Plug-In . SVG Version: 6.00 Build 0)  -->
<!DOCTYPE svg PUBLIC "-//W3C//DTD SVG 1.1//EN" "http://www.w3.org/Graphics/SVG/1.1/DTD/svg11.dtd">
<svg version="1.1" id="Toolkitchen_2_" xmlns="http://www.w3.org/2000/svg" xmlns:xlink="http://www.w3.org/1999/xlink" x="0px"
	 y="0px" width="612px" height="498px" viewBox="0 0 612 498" enable-background="new 0 0 612 498" xml:space="preserve">
<polygon id="Native_Bedrock_1_" fill="#E0E0E0" stroke="#999999" stroke-miterlimit="10" points="489.672,407.446 489.672,422.446 
	437.173,422.446 437.173,437.469 384.672,437.469 384.672,452.494 332.173,452.494 332.173,467.517 279.672,467.517 
	279.672,437.469 227.172,437.469 227.172,407.422 174.672,407.422 174.672,481.707 565.284,481.707 565.284,422.446 541.75,422.446 
	541.752,407.446 "/>
<g id="Kernel">
	<rect x="174.672" y="255.518" fill="#FFD14D" stroke="#F4B400" stroke-miterlimit="10" width="285.139" height="31.717"/>
	<text transform="matrix(1.028 0 0 1 291.5061 275.5488)" font-family="'ArialMT'" font-size="13.3543">polymer.js</text>
</g>
<g id="Applications">
	<g>
		
			<rect x="279.837" y="59.376" opacity="0.1" fill="#4387FD" stroke="#2364D7" stroke-miterlimit="10" enable-background="new    " width="75.118" height="60.095"/>
		<rect x="174.672" y="44.353" fill="#4387FD" stroke="#2364D7" stroke-miterlimit="10" width="45.071" height="45.071"/>
		
			<rect x="219.743" y="14.305" opacity="0.1" fill="#4387FD" stroke="#2364D7" stroke-miterlimit="10" enable-background="new    " width="60.094" height="75.119"/>
		
			<rect x="354.955" y="89.424" opacity="0.1" fill="#4387FD" stroke="#2364D7" stroke-miterlimit="10" enable-background="new    " width="30.382" height="30.047"/>
		
			<rect x="385.337" y="59.376" opacity="0.1" fill="#4387FD" stroke="#2364D7" stroke-miterlimit="10" enable-background="new    " width="29.713" height="80.291"/>
		
			<rect x="459.812" y="164.542" opacity="0.1" fill="#4387FD" stroke="#2364D7" stroke-miterlimit="10" enable-background="new    " width="45.38" height="45.071"/>
		
			<rect x="415.05" y="104.447" opacity="0.1" fill="#4387FD" stroke="#2364D7" stroke-miterlimit="10" enable-background="new    " width="44.762" height="105.166"/>
		
			<rect x="505.191" y="194.589" opacity="0.1" fill="#4387FD" stroke="#2364D7" stroke-miterlimit="10" enable-background="new    " width="15.024" height="15.024"/>
		
			<rect x="520.216" y="149.518" opacity="0.1" fill="#4387FD" stroke="#2364D7" stroke-miterlimit="10" enable-background="new    " width="15.021" height="15.023"/>
		
			<rect x="535.238" y="134.494" opacity="0.1" fill="#4387FD" stroke="#2364D7" stroke-miterlimit="10" enable-background="new    " width="30.047" height="30.047"/>
	</g>
	<text transform="matrix(1 0 0 1 183.3835 72.7305)" font-family="'ArialMT'" font-size="13.3543">Pica</text>
</g>
<g id="Components">
	<g>
		
			<rect x="324.907" y="119.471" opacity="0.1" fill="#0DA861" stroke="#03774B" stroke-miterlimit="10" enable-background="new    " width="60.5" height="75.118"/>
		
			<rect x="385.407" y="139.667" opacity="0.1" fill="#0DA861" stroke="#03774B" stroke-miterlimit="10" enable-background="new    " width="29.643" height="54.922"/>
		<rect x="174.672" y="194.589" fill="#0DA861" stroke="#03774B" stroke-miterlimit="10" width="240.235" height="60.929"/>
		<rect x="174.672" y="89.424" fill="#0DA861" stroke="#03774B" stroke-miterlimit="10" width="150.235" height="105.165"/>
		
			<rect x="520.216" y="164.542" opacity="0.1" fill="#0DA861" stroke="#03774B" stroke-miterlimit="10" enable-background="new    " width="45.068" height="122.692"/>
		
			<rect x="415.05" y="209.613" opacity="0.1" fill="#0DA861" stroke="#03774B" stroke-miterlimit="10" enable-background="new    " width="44.762" height="45.07"/>
		
			<rect x="459.812" y="209.613" opacity="0.1" fill="#0DA861" stroke="#03774B" stroke-miterlimit="10" enable-background="new    " width="60.404" height="77.621"/>
	</g>
	<text transform="matrix(1 0 0 1 273.3015 221.8877)" font-family="'ArialMT'" font-size="13.3543">Polymer</text>
	<text transform="matrix(1 0 0 1 269.9563 237.9131)" font-family="'ArialMT'" font-size="13.3543">Elements</text>
	<text transform="matrix(1 0 0 1 216.7703 140.8965)" font-family="'ArialMT'" font-size="13.3543">Polymer UI</text>
	<text transform="matrix(1 0 0 1 221.9573 156.9219)" font-family="'ArialMT'" font-size="13.3543">Elements</text>
</g>
<g id="Foundation">
	<g>
		<rect x="279.672" y="302.258" fill="#F44A3F" stroke="#CD372D" stroke-miterlimit="10" width="52.501" height="165.259"/>
		<rect x="332.173" y="302.258" fill="#F44A3F" stroke="#CD372D" stroke-miterlimit="10" width="52.499" height="150.236"/>
		<rect x="384.672" y="302.258" fill="#F44A3F" stroke="#CD372D" stroke-miterlimit="10" width="52.501" height="135.211"/>
		<rect x="437.173" y="302.258" fill="#F44A3F" stroke="#CD372D" stroke-miterlimit="10" width="52.499" height="120.188"/>
		<rect x="227.172" y="302.258" fill="#F44A3F" stroke="#CD372D" stroke-miterlimit="10" width="52.5" height="135.211"/>
		<rect x="489.672" y="302.258" fill="#F44A3F" stroke="#CD372D" stroke-miterlimit="10" width="52.5" height="105.188"/>
		<rect x="541.75" y="302.258" fill="#F44A3F" stroke="#CD372D" stroke-miterlimit="10" width="52.5" height="120.188"/>
		<rect x="174.672" y="302.258" fill="#F44A3F" stroke="#CD372D" stroke-miterlimit="10" width="52.5" height="105.164"/>
	</g>
	<g>
		<text transform="matrix(0 -1 1 0 466.9846 416.6318)" font-family="'ArialMT'" font-size="13.3543">TemplateBinding</text>
		<text transform="matrix(0 -1 1 0 196.4719 382.3037)" font-family="'ArialMT'" font-size="13.3543">Mutation  </text>
		<text transform="matrix(0 -1 1 0 212.4963 385.6357)" font-family="'ArialMT'" font-size="13.3543">Observers</text>
		<text transform="matrix(0 -1 1 0 571.5627 409.2998)" font-family="'ArialMT'" font-size="13.3543">Web Animations</text>
		<text transform="matrix(0 -1 1 0 519.4846 395.5732)" font-family="'ArialMT'" font-size="13.3543">Node.bind()</text>
		<text transform="matrix(0 -1 1 0 256.9836 413.291)" font-family="'ArialMT'" font-size="13.3543">Pointer Events</text>
		<text transform="matrix(0 -1 1 0 309.4846 418.9375)" font-family="'ArialMT'" font-size="13.3543">Shadow DOM</text>
		<text transform="matrix(0 -1 1 0 414.4846 412.1592)" font-family="'ArialMT'" font-size="13.3543">HTML Imports</text>
		<text transform="matrix(0 -1 1 0 361.9846 430.0684)" font-family="'ArialMT'" font-size="13.3543">Custom Elements</text>
	</g>
	<rect x="174.672" y="287.232" fill="#CD372D" stroke="#CD372D" stroke-miterlimit="10" width="419.578" height="17.268"/>
	<text transform="matrix(1.0833 0 0 1 351.2209 300.3359)" font-family="'ArialMT'" font-size="13.3543">platform.js</text>
</g>
<g id="Legend">
	<g id="Native">
		<rect x="66.726" y="407.422" opacity="0.4" fill="#E0E0E0" enable-background="new    " width="107.946" height="74.285"/>
		
			<rect id="Extra_Block_1_" x="23.88" y="407.422" opacity="0.4" fill="#E0E0E0" enable-background="new    " width="42.846" height="74.285"/>
		<text transform="matrix(1 0 0 1 99.9343 449.9902)" fill="#999999" font-family="'ArialMT'" font-size="13.3543">Native</text>
	</g>
	<g id="Foundation_1_">
		<rect x="66.726" y="287.232" opacity="0.2" fill="#F44A3F" enable-background="new    " width="107.946" height="120.188"/>
		<text transform="matrix(1 0 0 1 85.4485 354.8389)" fill="#CD372D" font-family="'ArialMT'" font-size="13.3543">Foundation</text>
	</g>
	<g id="Kernel_1_">
		<rect x="66.726" y="255.518" opacity="0.2" fill="#FFD14D" enable-background="new    " width="107.946" height="31.717"/>
		<text transform="matrix(1 0 0 1 101.5588 275.5479)" fill="#F4B400" font-family="'ArialMT'" font-size="13.3543">Core</text>
	</g>
	<g id="Components_1_">
		<rect x="66.726" y="89.424" opacity="0.2" fill="#0DA861" enable-background="new    " width="107.946" height="166.094"/>
		<text transform="matrix(1 0 0 1 92.0012 179.5645)" fill="#03774B" font-family="'ArialMT'" font-size="13.3543">Elements</text>
	</g>
	<g id="Applications_1_">
		<rect x="66.726" y="44.353" opacity="0.2" fill="#4387FD" enable-background="new    " width="107.946" height="45.071"/>
		
			<rect id="Extra_Block" x="23.88" y="44.353" opacity="0.2" fill="#4387FD" enable-background="new    " width="42.846" height="45.071"/>
		<text transform="matrix(1 0 0 1 82.866 72.7295)" fill="#2364D7" font-family="'ArialMT'" font-size="13.3543">Applications</text>
	</g>
	<g id="Toolkitchen">
		<rect x="23.88" y="89.424" opacity="0.1" fill="#603813" enable-background="new    " width="42.846" height="317.998"/>
		<text transform="matrix(0 -1 1 0 48.6145 283.2334)" fill="#603813" font-family="'ArialMT'" font-size="13.3543">Polymer</text>
	</g>
</g>
</svg>
